<?xml version="1.0" encoding="UTF-8" standalone="no"?>
<!DOCTYPE svg PUBLIC "-//W3C//DTD SVG 1.1//EN" "http://www.w3.org/Graphics/SVG/1.1/DTD/svg11.dtd">
<svg width="100%" height="100%" viewBox="0 0 300 200" version="1.1" xmlns="http://www.w3.org/2000/svg" xmlns:xlink="http://www.w3.org/1999/xlink" xml:space="preserve" xmlns:serif="http://www.serif.com/" style="fill-rule:evenodd;clip-rule:evenodd;stroke-linecap:round;stroke-linejoin:round;stroke-miterlimit:1.5;">
    <g transform="matrix(0.882819,0,0,0.882819,-236.585,-59.3151)">
        <path d="M360.432,156.157L382.783,155.423L406.672,155.415L432.987,156.877L452.391,157.279L465.525,157.811L475.049,156.605L482.261,153.835L488.056,148.358L494.442,143.122L499.757,138.421L506.036,133.109L511.772,128.776L515.438,124.382L519.385,114.737L522.046,106.853L525.831,115.722L530.797,115.941L534.931,109.078L535.43,117.882L538.336,121.339L543.185,123.704L548.864,126.306L552.471,130.918L555.366,134.894L560.274,137.023L562.403,139.802L561.432,143.527L559.626,149.204L558.556,152.513L555.306,154.46L550.37,156.883L542.783,157.025L539.232,157.076L535.93,166.131L529.029,181.765L523.154,195.949L517.839,211.772L511.253,226.47L509.253,231.912L509.118,236.853L510.11,244.442L511.341,255.323L513.31,263.612L514.491,271.54L515.136,278.65L515.483,282.231L519.504,283.177L525.18,285.839L530.553,288.432L529.489,294.22L512.245,295.424L508.035,285.159L500.865,269.929L494.055,255.843L489.842,245.49L484.846,233.995L470.709,267.34L469.349,272.034L456.71,282.796L458.774,290.777L452.443,293.418L446.42,288.659L445.988,279.029L457.928,261.695L464.294,233.366L454.048,223.306L423.084,221.531L405.149,225.424L395.608,234.811L401.664,264.931L414.149,278.747L422.427,280.093L427.505,283.81L423.936,291.319L410.874,292.108L379.214,265.385L380.555,254.488L373.383,236.247L353.473,254.717L334.115,260.995L335.961,281.234L343.293,286.77L340.493,292.966L323.232,293.46L316.05,253.796L332.264,226.592L331.164,194.966L346.771,162.007L344.29,149.329C344.29,149.329 332.75,130.486 332.813,122.392C332.891,112.498 338.701,95.867 338.701,95.867L347.729,83.029L357.702,76.386L367.812,71.903L377.368,70.901L374.468,76.077L369.536,77.608L362.626,80.806L355.529,85.388L347.639,92.392L343.577,102.207L341.343,118.666L341.42,128.652L346.606,138.165L352.578,147.212L356.222,152.654L360.432,156.157Z" style="fill:rgb(2,2,2);stroke:black;stroke-width:1.13px;"/>
    </g>
</svg>
